<?xml version="1.0" encoding="UTF-8"?>
<svg id="Warstwa_1" data-name="Warstwa 1" xmlns="http://www.w3.org/2000/svg" viewBox="0 0 123 128">
  <defs>
    <style>
      .cls-1 {
        fill: none;
      }

      .cls-1, .cls-2, .cls-3 {
        stroke-width: 0px;
      }

      .cls-2 {
        fill: #4a844d;
      }

      .cls-3 {
        fill: #fff;
      }
    </style>
  </defs>
  <rect class="cls-1" x="55.47" y="49.23" width=".04" height="7.19"/>
  <rect class="cls-1" x="65.93" y="49.23" width=".01" height="7.19"/>
  <rect class="cls-1" x="80.3" y="72.28" width="7.19" height=".06"/>
  <rect class="cls-1" x="80.3" y="82.75" width="7.19" height=".09"/>
  <rect class="cls-1" x="55.47" y="59" width=".04" height=".06"/>
  <g>
    <path class="cls-2" d="M123,83.45c-2.74,3.56-2.55,8.81-6.68,11.61-.39.26-.51,1.33-.35,1.91,1.05,8.21-12.18,4.89-14.99.41-5.74-6.84-12.81-.84-15.58,5.41-2.54,4.4-5.45-3.89-10.2,1.1-2.72,2.04-7.79-1.73-7.85,3.36-1.04,16.65,20.22,3.24,28.47,11.64,23.02,14.34-116.47,9.11-83.17-.29,8.65,1.67,17.39,5.55,26.09,1.97,4.99-3.72,16.22-.13,17.24-7.37.19-2.87-2.6-2.88-4.48-2.95-9.32,1.2-8.47-12.93-17.61-10.3-2.83.49-4.78,2.1-4.66,5.35-1.62,8.93-18.48.78-21.59-3.6-4.24-6.6,1.68-11.41-7.49-16.87-1.62-12.03,9.53-11.3,8.93-19.36-.27-2.3.63-3.6,3.1-3.1,6.83.31-4.6-12.06,4.66-12.95,5.71-1.16-.11-8.08,3.69-10.85,8.03-5.11,1.75-16.49,10.06-20.7,2.77-2.95,3.21-8.07,8.65-7.17,8.03.35,3.13-8.51,13.97-4.29,1.73.39,3.45.39,3.79-1.67.55-5.83,7.19,1.57,7.56-4.17,7.83-2.28,10.07,8.91,17.17,8.03,7.62-1.75,7.53,10.15,13.37,11.17,10.45-.48,13.73,18.03,5.4,23.62-1.46,1.12-.93,2.44-.1,3.62,1.18,1.68,2.94,2.32,4.93,2.7,9.45.75,3.59,10.23,8.97,14.22,1.74,1.19,3.68,2.81,3.19,4.9-2.56,7.11,4.66,9.34,5.51,14.61Z"/>
    <path class="cls-3" d="M36.88,54.92v-10.11c0-3.25,2.36-5.88,5.27-5.88h13.09c-2.12,4.82-5.4,9.04-9.47,11.94-2.72,1.94-5.75,3.31-8.89,4.05ZM54.32,51.6c2.49,2.47,5.15,4.67,8,6.59,6.57,4.42,13.98,7.35,21.57,8.55v-21.93c0-3.25-2.36-5.88-5.27-5.88h-16.91c-1.66,4.75-4.19,9.07-7.4,12.67ZM64.26,66.86c-5.27-2.86-10.18-6.54-14.54-10.97-.31.24-.63.48-.95.71-3.63,2.59-7.69,4.26-11.89,5.04v17.55c0,3.25,2.36,5.88,5.27,5.88h9.19c3.13-6.94,7.51-13.16,12.92-18.21ZM70.5,69.79c-5.04,4-9.29,9.29-12.46,15.28h20.58c2.91,0,5.27-2.63,5.27-5.88v-5.81c-4.57-.65-9.07-1.86-13.39-3.6Z"/>
  </g>
  <rect class="cls-1" x="55.47" y="69.48" width=".04" height=".09"/>
  <rect class="cls-1" x="65.93" y="59" width="21.56" height=".06"/>
  <rect class="cls-1" x="65.93" y="69.48" width="21.56" height=".09"/>
  <rect class="cls-1" x="55.47" y="35.96" width=".04" height="23.1"/>
  <rect class="cls-1" x="55.47" y="69.48" width=".04" height=".09"/>
  <rect class="cls-1" x="65.93" y="35.96" width=".01" height="23.1"/>
  <rect class="cls-1" x="65.93" y="69.48" width=".01" height=".09"/>
  <rect class="cls-1" x="55.47" y="35.96" width=".04" height="7.19"/>
  <rect class="cls-1" x="65.93" y="35.96" width=".01" height="7.19"/>
  <rect class="cls-1" x="80.3" y="59" width="7.19" height=".06"/>
  <rect class="cls-1" x="80.3" y="69.48" width="7.19" height=".09"/>
  <rect class="cls-3" x="57.09" y="56.73" width=".04" height=".05"/>
  <rect class="cls-3" x="57.09" y="66.21" width=".04" height=".08"/>
  <rect class="cls-3" x="57.09" y="66.21" width=".04" height=".08"/>
  <rect class="cls-3" x="66.55" y="66.21" width=".01" height=".08"/>
</svg>